<svg xmlns="http://www.w3.org/2000/svg" xmlns:xlink="http://www.w3.org/1999/xlink" width="377" zoomAndPan="magnify" viewBox="0 0 283.5 283.500005" height="377" preserveAspectRatio="xMidYMid meet" version="1.0"><defs><clipPath id="9a32b4740d"><path d="M 0 0 L 283 0 L 283 282.953125 L 0 282.953125 Z M 0 0 " clip-rule="nonzero"/></clipPath></defs><g clip-path="url(#9a32b4740d)"><path fill="#fcfcfc" d="M 248.417969 3.472656 L 248.417969 223.386719 L 230.410156 223.386719 L 230.410156 3.472656 C 230.410156 1.539062 228.84375 -0.0273438 226.914062 -0.0273438 C 224.980469 -0.0273438 223.414062 1.539062 223.414062 3.472656 L 223.414062 223.386719 L 3.5 223.386719 C 1.566406 223.386719 0 224.953125 0 226.886719 C 0 228.820312 1.566406 230.386719 3.5 230.386719 L 223.414062 230.386719 L 223.414062 248.394531 L 3.5 248.394531 C 1.566406 248.394531 0 249.960938 0 251.890625 C 0 253.824219 1.566406 255.390625 3.5 255.390625 L 223.414062 255.390625 L 223.414062 279.457031 C 223.414062 281.386719 224.980469 282.953125 226.914062 282.953125 C 228.84375 282.953125 230.410156 281.386719 230.410156 279.457031 L 230.410156 255.390625 L 248.417969 255.390625 L 248.417969 279.457031 C 248.417969 281.386719 249.984375 282.953125 251.917969 282.953125 C 253.851562 282.953125 255.417969 281.386719 255.417969 279.457031 L 255.417969 255.390625 L 279.480469 255.390625 C 281.414062 255.390625 282.980469 253.824219 282.980469 251.890625 C 282.980469 249.960938 281.414062 248.394531 279.480469 248.394531 L 255.417969 248.394531 L 255.417969 230.386719 L 279.480469 230.386719 C 281.414062 230.386719 282.980469 228.820312 282.980469 226.886719 C 282.980469 224.953125 281.414062 223.386719 279.480469 223.386719 L 255.417969 223.386719 L 255.417969 3.472656 C 255.417969 1.539062 253.851562 -0.0273438 251.917969 -0.0273438 C 249.984375 -0.0273438 248.417969 1.539062 248.417969 3.472656 Z M 248.417969 248.394531 L 230.410156 248.394531 L 230.410156 230.386719 L 248.417969 230.386719 Z M 248.417969 248.394531 " fill-opacity="1" fill-rule="nonzero"/></g></svg>